<svg xmlns="http://www.w3.org/2000/svg" viewBox="0 0 512 512" role="img" aria-label="H2 sports bar & poker">
  <defs>
    <linearGradient id="h2bg" x1="0" y1="0" x2="1" y2="1">
      <stop offset="0%" stop-color="#8f43c8"/>
      <stop offset="100%" stop-color="#52217e"/>
    </linearGradient>
  </defs>
  <rect x="10" y="10" width="492" height="492" rx="96" fill="url(#h2bg)" stroke="#a56bd6" stroke-width="6"/>
  <g fill="#ffffff">
    <path d="M118 198h42v46h55v-46h42v116h-42v-34h-55v34h-42z"/>
    <path d="M273 211c0-22 18-40 40-40h39c22 0 40 18 40 40 0 16-8 29-22 37l-53 30c-4 2-6 5-6 9v4h80v30H273v-33c0-17 9-31 24-39l52-29c6-3 9-8 9-13 0-6-5-11-11-11h-32c-6 0-11 5-11 11v6h-31z"/>
  </g>
  <text x="306" y="255" font-family="Arial, Helvetica, sans-serif" font-size="34" font-weight="700" fill="#ffffff">sports</text>
  <text x="306" y="293" font-family="Arial, Helvetica, sans-serif" font-size="34" font-weight="700" fill="#ffffff">bar &amp;</text>
  <text x="306" y="331" font-family="Arial, Helvetica, sans-serif" font-size="34" font-weight="700" fill="#ffffff">poker</text>
</svg>
