<svg xmlns="http://www.w3.org/2000/svg" viewBox="0 0 512 512" role="img" aria-label="KKPoker icon">
  <defs>
    <linearGradient id="kkbg" x1="0" y1="0" x2="0" y2="1">
      <stop offset="0%" stop-color="#0b2d26"/>
      <stop offset="100%" stop-color="#07211c"/>
    </linearGradient>
    <linearGradient id="kkg" x1="0" y1="0" x2="1" y2="1">
      <stop offset="0%" stop-color="#50f6b7"/>
      <stop offset="100%" stop-color="#19c786"/>
    </linearGradient>
  </defs>
  <rect width="512" height="512" fill="url(#kkbg)"/>
  <path d="M80 120l176-72 176 72v122c0 121-69 200-176 242C149 442 80 363 80 242z" fill="none" stroke="url(#kkg)" stroke-width="18"/>
  <g fill="url(#kkg)">
    <path d="M150 186h40v58l49-58h52l-62 73 66 87h-51l-45-60-9 11v49h-40z"/>
    <path d="M322 186h40v58l49-58h52l-62 73 66 87h-51l-45-60-9 11v49h-40z" transform="translate(-54 0)"/>
  </g>
</svg>
