<svg xmlns="http://www.w3.org/2000/svg" viewBox="0 0 768 1024" role="img" aria-label="PokerStars icon">
  <path d="M384 0C232 154 78 338 33 547c-43 201 55 356 217 389 73 15 122-2 134-40 12-37 50-37 62 0 12 38 61 55 134 40 162-33 260-188 217-389C690 338 536 154 384 0z" fill="#e00034"/>
  <path d="M384 290l52 162h170l-137 99 53 163-138-100-138 100 53-163-137-99h170z" fill="#ffffff"/>
  <path d="M322 809c16 18 33 36 62 36s46-18 62-36c6-8 19-11 29-6 10 5 15 17 11 28-28 80-69 132-102 157-33-25-74-77-102-157-4-11 1-23 11-28 10-5 23-2 29 6z" fill="#e00034"/>
</svg>
