<svg xmlns="http://www.w3.org/2000/svg" viewBox="0 0 512 512" role="img" aria-label="PPPoker icon">
  <defs>
    <linearGradient id="ppbg" x1="0" y1="0" x2="0" y2="1">
      <stop offset="0%" stop-color="#2c2f35"/>
      <stop offset="100%" stop-color="#12161b"/>
    </linearGradient>
    <linearGradient id="ppg" x1="0" y1="0" x2="1" y2="1">
      <stop offset="0%" stop-color="#43f58a"/>
      <stop offset="100%" stop-color="#1db35b"/>
    </linearGradient>
  </defs>
  <rect width="512" height="512" fill="url(#ppbg)"/>
  <path d="M256 64c42 70 103 122 145 180 47 65 28 167-42 216-61 43-146 34-197-20-47-49-55-126-20-183 26-43 66-76 114-109z" fill="url(#ppg)" transform="rotate(14 256 256) translate(32 -20)"/>
  <path d="M256 64c42 70 103 122 145 180 47 65 28 167-42 216-61 43-146 34-197-20-47-49-55-126-20-183 26-43 66-76 114-109z" fill="url(#ppg)" transform="rotate(-14 256 256) translate(-32 -20)"/>
  <path d="M256 380c38 18 65 49 72 86h-144c7-37 34-68 72-86z" fill="url(#ppg)"/>
</svg>
