<?xml version="1.0" encoding="UTF-8"?>
<!-- Generator: Adobe Illustrator 28.3.0, SVG Export Plug-In . SVG Version: 6.00 Build 0)  -->
<svg xmlns="http://www.w3.org/2000/svg" xmlns:xlink="http://www.w3.org/1999/xlink" version="1.1" id="Camada_1" x="0px" y="0px" viewBox="0 0 60 60" style="enable-background:new 0 0 60 60;" xml:space="preserve">
<style type="text/css">
	.st0{fill:#EFA144;}
</style>
<g>
	<path class="st0" d="M57.57,26.05H45.02H21.79h-2.57c-1.15-0.07-1.82-1.39-1.14-2.37c0.47-0.68,0.94-1.37,1.37-1.99l4.28-6.31   c0.59-0.87,1.88-0.89,2.49-0.02l5.02,7.1h11.22L30.93,6.19c-1.29-1.79-3.17-3.44-6.15-3.44c-2.84,0-4.72,1.52-6.06,3.44L1.19,31.57   c-0.69,1,0.03,2.37,1.25,2.37h12.55h23.22h2.57c1.15,0.07,1.82,1.39,1.14,2.37c-0.47,0.68-0.94,1.37-1.37,1.99l-4.28,6.31   c-0.59,0.87-1.88,0.89-2.49,0.02l-5.02-7.1H17.54l11.54,16.27c1.29,1.79,3.17,3.44,6.15,3.44c2.84,0,4.72-1.52,6.06-3.44   l17.54-25.38C59.51,27.42,58.79,26.05,57.57,26.05z"></path>
</g>
</svg>
