<svg width="1200" height="700" viewBox="0 0 1200 700" fill="none" xmlns="http://www.w3.org/2000/svg">
  <defs>
    <linearGradient id="bg" x1="0" y1="0" x2="1200" y2="700" gradientUnits="userSpaceOnUse">
      <stop stop-color="#0B1120"/>
      <stop offset="0.45" stop-color="#1B1830"/>
      <stop offset="1" stop-color="#261018"/>
    </linearGradient>
    <radialGradient id="burst" cx="0" cy="0" r="1" gradientUnits="userSpaceOnUse" gradientTransform="translate(600 165) rotate(90) scale(220 250)">
      <stop stop-color="#FFB703"/>
      <stop offset="0.45" stop-color="#FF6A00" stop-opacity="0.75"/>
      <stop offset="1" stop-color="#FF6A00" stop-opacity="0"/>
    </radialGradient>
    <linearGradient id="leftPanel" x1="40" y1="0" x2="460" y2="0" gradientUnits="userSpaceOnUse">
      <stop stop-color="#0E254D"/>
      <stop offset="1" stop-color="#1B4F9A"/>
    </linearGradient>
    <linearGradient id="rightPanel" x1="740" y1="0" x2="1160" y2="0" gradientUnits="userSpaceOnUse">
      <stop stop-color="#77151A"/>
      <stop offset="1" stop-color="#C72A2A"/>
    </linearGradient>
    <linearGradient id="boardBase" x1="0" y1="0" x2="0" y2="160" gradientUnits="userSpaceOnUse">
      <stop stop-color="#1E2232"/>
      <stop offset="1" stop-color="#0A0E18"/>
    </linearGradient>
    <filter id="glow" x="-50%" y="-50%" width="200%" height="200%">
      <feGaussianBlur stdDeviation="12" result="blur"/>
      <feMerge>
        <feMergeNode in="blur"/>
        <feMergeNode in="SourceGraphic"/>
      </feMerge>
    </filter>
    <filter id="softGlow" x="-50%" y="-50%" width="200%" height="200%">
      <feGaussianBlur stdDeviation="6" result="blur"/>
      <feMerge>
        <feMergeNode in="blur"/>
        <feMergeNode in="SourceGraphic"/>
      </feMerge>
    </filter>
    <style>
      .title { font: 900 72px 'Arial', sans-serif; letter-spacing: 1px; fill: #FFE082; }
      .small { font: 700 18px 'Arial', sans-serif; letter-spacing: 2px; fill: white; }
      .label { font: 900 34px 'Arial', sans-serif; letter-spacing: 1px; fill: white; }
    </style>
  </defs>

  <rect width="1200" height="700" rx="32" fill="url(#bg)"/>
  <circle cx="600" cy="170" r="190" fill="url(#burst)"/>

  <g opacity="0.85">
    <rect x="65" y="72" width="42" height="12" rx="4" transform="rotate(18 65 72)" fill="#FB8500"/>
    <rect x="180" y="38" width="48" height="10" rx="4" transform="rotate(-12 180 38)" fill="#219EBC"/>
    <rect x="285" y="90" width="40" height="12" rx="4" transform="rotate(23 285 90)" fill="#FFB703"/>
    <rect x="1010" y="58" width="45" height="12" rx="4" transform="rotate(22 1010 58)" fill="#FB8500"/>
    <rect x="1095" y="118" width="52" height="12" rx="4" transform="rotate(-27 1095 118)" fill="#8ECAE6"/>
    <rect x="885" y="96" width="36" height="10" rx="4" transform="rotate(-18 885 96)" fill="#FFB703"/>
    <rect x="126" y="156" width="32" height="10" rx="4" transform="rotate(-32 126 156)" fill="#8ECAE6"/>
    <rect x="1034" y="178" width="36" height="10" rx="4" transform="rotate(33 1034 178)" fill="#FB8500"/>
    <rect x="355" y="54" width="28" height="9" rx="4" transform="rotate(-24 355 54)" fill="#8ECAE6"/>
    <rect x="820" y="36" width="24" height="8" rx="4" transform="rotate(12 820 36)" fill="#FFB703"/>
  </g>

  <text x="150" y="110" class="title">HEY HEY</text>
  <text x="807" y="110" class="title">VALAVALÁ</text>
  <text x="600" y="210" text-anchor="middle" font-family="Arial, sans-serif" font-weight="900" font-size="112" fill="#FFF6D5" filter="url(#glow)">VS</text>

  <g transform="translate(110 255) rotate(-4)">
    <rect width="185" height="260" rx="18" fill="#FFF8E8" stroke="#D4C2A5" stroke-width="6"/>
    <text x="28" y="64" font-family="Georgia, serif" font-size="78" font-weight="700" fill="#141414">K</text>
    <text x="26" y="120" font-family="Georgia, serif" font-size="64" fill="#141414">♣</text>
    <rect x="45" y="92" width="96" height="120" rx="16" fill="#EFE6D1" stroke="#141414" stroke-width="3"/>
    <circle cx="93" cy="134" r="34" fill="#E9C14F"/>
    <rect x="75" y="166" width="36" height="38" rx="10" fill="#24324C"/>
  </g>
  <g transform="translate(235 278) rotate(3)">
    <rect width="185" height="260" rx="18" fill="#FFF8E8" stroke="#D4C2A5" stroke-width="6"/>
    <text x="28" y="64" font-family="Georgia, serif" font-size="78" font-weight="700" fill="#E63946">K</text>
    <text x="22" y="120" font-family="Georgia, serif" font-size="64" fill="#E63946">♥</text>
    <rect x="45" y="92" width="96" height="120" rx="16" fill="#F6E0C8" stroke="#141414" stroke-width="3"/>
    <circle cx="93" cy="134" r="34" fill="#F4D35E"/>
    <rect x="75" y="166" width="36" height="38" rx="10" fill="#6B1F1F"/>
  </g>

  <g transform="translate(710 278) rotate(-2)">
    <rect width="185" height="260" rx="18" fill="#FFF8E8" stroke="#D4C2A5" stroke-width="6"/>
    <text x="28" y="64" font-family="Georgia, serif" font-size="78" font-weight="700" fill="#E63946">J</text>
    <text x="22" y="120" font-family="Georgia, serif" font-size="64" fill="#E63946">♥</text>
    <rect x="45" y="92" width="96" height="120" rx="16" fill="#F6E0C8" stroke="#141414" stroke-width="3"/>
    <circle cx="93" cy="134" r="34" fill="#F4D35E"/>
    <rect x="75" y="166" width="36" height="38" rx="10" fill="#1F3A6B"/>
  </g>
  <g transform="translate(835 260) rotate(5)">
    <rect width="185" height="260" rx="18" fill="#FFF8E8" stroke="#D4C2A5" stroke-width="6"/>
    <text x="28" y="64" font-family="Georgia, serif" font-size="78" font-weight="700" fill="#E63946">J</text>
    <text x="22" y="120" font-family="Georgia, serif" font-size="64" fill="#E63946">♦</text>
    <rect x="45" y="92" width="96" height="120" rx="16" fill="#EFE6D1" stroke="#141414" stroke-width="3"/>
    <circle cx="93" cy="134" r="34" fill="#F4D35E"/>
    <rect x="75" y="166" width="36" height="38" rx="10" fill="#24324C"/>
  </g>

  <g transform="translate(52 468)">
    <rect width="446" height="82" rx="8" fill="url(#leftPanel)" stroke="#263B68" stroke-width="4"/>
    <text x="223" y="53" text-anchor="middle" class="title" font-size="48">HEY HEY</text>
  </g>
  <g transform="translate(702 468)">
    <rect width="446" height="82" rx="8" fill="url(#rightPanel)" stroke="#7C2026" stroke-width="4"/>
    <text x="223" y="53" text-anchor="middle" class="title" font-size="48">VALAVALÁ</text>
  </g>

  <g transform="translate(515 458)">
    <rect width="170" height="108" rx="10" fill="#242536" stroke="#3B3D57" stroke-width="4"/>
    <text x="85" y="50" text-anchor="middle" class="label">PLACAR</text>
  </g>

  <g transform="translate(52 548)">
    <rect width="446" height="118" rx="12" fill="url(#boardBase)" stroke="#2A3148" stroke-width="4"/>
    <rect x="18" y="18" width="122" height="82" rx="8" fill="#0B1020" opacity="0.85"/>
    <rect x="162" y="18" width="122" height="82" rx="8" fill="#1A2540" opacity="0.45"/>
    <rect x="306" y="18" width="122" height="82" rx="8" fill="#0B1020" opacity="0.85"/>
  </g>
  <g transform="translate(515 548)">
    <rect width="170" height="118" rx="12" fill="url(#boardBase)" stroke="#2A3148" stroke-width="4"/>
    <text x="85" y="79" text-anchor="middle" font-family="Arial, sans-serif" font-size="74" font-weight="900" fill="#F4F4F4" filter="url(#softGlow)">VS</text>
  </g>
  <g transform="translate(702 548)">
    <rect width="446" height="118" rx="12" fill="url(#boardBase)" stroke="#2A3148" stroke-width="4"/>
    <rect x="18" y="18" width="122" height="82" rx="8" fill="#0B1020" opacity="0.85"/>
    <rect x="162" y="18" width="122" height="82" rx="8" fill="#3E1215" opacity="0.45"/>
    <rect x="306" y="18" width="122" height="82" rx="8" fill="#0B1020" opacity="0.85"/>
  </g>
</svg>
