<svg width="32" height="32" viewBox="0 0 32 32" fill="none" xmlns="http://www.w3.org/2000/svg">
<g clip-path="url(#clip0_288_272)">
<g filter="url(#filter0_dd_288_272)">
<path d="M29.1221 8.1123L28.1172 7.12402L27.6963 6.70996L26.6914 5.72168L30.0117 4.84668L29.1221 8.1123Z" fill="url(#paint0_linear_288_272)" shape-rendering="crispEdges"/>
</g>
<g filter="url(#filter1_in_288_272)">
<path d="M26.9009 19.6904C26.9007 21.9872 25.0385 23.8486 22.7417 23.8486H13.4448C13.3491 23.8486 13.2564 23.8836 13.1841 23.9463L8.60205 27.9209C8.04017 28.4083 7.1649 28.0093 7.16455 27.2656V24.2471C7.16455 24.0274 6.9868 23.8486 6.76709 23.8486H5.5835C4.90583 23.8486 4.26697 23.685 3.70166 23.3975L7.54932 19.5557L10.6362 22.2822L16.0601 16.0273L19.0786 19.0977L26.9009 10.832V19.6904ZM22.7417 5.52051C23.7127 5.52051 24.6053 5.85445 25.313 6.41211L19.0786 13.0391L16.0601 9.96875L10.6353 16.2236L7.54932 13.4971L1.42432 19.7217V9.67969C1.42433 7.38276 3.28656 5.52051 5.5835 5.52051H22.7417Z" fill="url(#paint1_linear_288_272)"/>
</g>
<g filter="url(#filter2_d_288_272)">
<path d="M12.2725 16.1732L13.2708 14.8584L14.2691 16.1732L13.2708 17.488L12.2725 16.1732Z" fill="white"/>
</g>
<g filter="url(#filter3_d_288_272)">
<path d="M22.8692 12.5685C22.8898 12.5856 22.9093 12.604 22.9276 12.6235L22.932 12.6276L22.9316 12.6279C23.0393 12.7446 23.1052 12.9005 23.1052 13.0718C23.1052 13.4336 22.8119 13.7269 22.4502 13.7269C22.2761 13.7269 22.1179 13.659 22.0006 13.5482C21.9862 13.7856 22.0157 13.9531 22.2872 14.3473H21.4805C21.752 13.9531 21.7815 13.7856 21.7672 13.5482C21.6499 13.659 21.4917 13.7269 21.3177 13.7269C20.9559 13.7269 20.6626 13.4336 20.6626 13.0718C20.6626 12.9006 20.7283 12.7448 20.8359 12.6281L20.8352 12.6276L20.8455 12.6178C20.8603 12.6024 20.8759 12.5877 20.8922 12.5738L21.8836 11.6396L22.8692 12.5685Z" fill="white"/>
</g>
<g filter="url(#filter4_d_288_272)">
<path d="M19.625 14.7871C19.9785 14.7871 20.2651 15.0738 20.2651 15.4273C20.2651 15.5948 20.2007 15.7472 20.0955 15.8612L20.0958 15.8615L20.0915 15.8655C20.0736 15.8846 20.0546 15.9025 20.0345 15.9193L19.0712 16.827L18.1023 15.914C18.0864 15.9004 18.0712 15.8861 18.0567 15.871L18.0466 15.8615L18.0473 15.861C17.9422 15.7469 17.8779 15.5946 17.8779 15.4273C17.8779 15.0738 18.1646 14.7871 18.5181 14.7871C18.7543 14.7871 18.9606 14.915 19.0715 15.1053C19.1825 14.915 19.3888 14.7871 19.625 14.7871Z" fill="white"/>
</g>
<g filter="url(#filter5_d_288_272)">
<path d="M16.0624 11.9443C16.4388 11.9443 16.744 12.2495 16.744 12.6259C16.744 12.7547 16.7082 12.8751 16.6461 12.9779C16.6908 12.9687 16.7371 12.9638 16.7845 12.9638C17.161 12.9638 17.4661 13.269 17.4661 13.6454C17.4661 14.0218 17.161 14.327 16.7845 14.327C16.5195 14.327 16.2898 14.1757 16.177 13.9548C16.1692 14.1708 16.2108 14.3411 16.4657 14.7113H15.6591C15.914 14.3411 15.9555 14.1708 15.9477 13.9548C15.835 14.1757 15.6053 14.327 15.3403 14.327C14.9639 14.327 14.6587 14.0218 14.6587 13.6454C14.6587 13.269 14.9639 12.9638 15.3403 12.9638C15.3877 12.9638 15.4339 12.9686 15.4786 12.9778C15.4165 12.8751 15.3808 12.7547 15.3808 12.6259C15.3808 12.2495 15.686 11.9443 16.0624 11.9443Z" fill="white"/>
</g>
<mask id="mask0_288_272" style="mask-type:alpha" maskUnits="userSpaceOnUse" x="1" y="11" width="23" height="13">
<path d="M2.77979 21.1631C3.13322 21.1632 3.41943 21.4502 3.41943 21.8037C3.41938 21.971 3.35555 22.1233 3.25049 22.2373L3.24658 22.2422C3.22869 22.2612 3.20905 22.2792 3.18896 22.2959L2.22607 23.2031L1.25732 22.29C1.24142 22.2764 1.22592 22.2621 1.21143 22.2471L1.20068 22.2373H1.20166C1.09662 22.1233 1.03276 21.9709 1.03271 21.8037C1.03271 21.4503 1.31896 21.1633 1.67236 21.1631C1.90849 21.1631 2.11511 21.2912 2.22607 21.4814C2.33704 21.2912 2.54364 21.1631 2.77979 21.1631ZM5.80713 19.2363L4.80811 20.5508L3.81006 19.2363L4.80811 17.9209L5.80713 19.2363ZM11.6216 18.417C11.6421 18.4341 11.6619 18.4522 11.6802 18.4717L11.6841 18.4766C11.7917 18.5932 11.8578 18.7488 11.8579 18.9199C11.8579 19.2817 11.5644 19.5752 11.2026 19.5752C11.0286 19.5752 10.8707 19.5072 10.7534 19.3965C10.7391 19.6338 10.7684 19.8015 11.0396 20.1953H10.2329C10.5043 19.8013 10.5344 19.6339 10.52 19.3965C10.4027 19.5072 10.2439 19.5752 10.0698 19.5752C9.70825 19.575 9.41553 19.2815 9.41553 18.9199C9.41564 18.7489 9.48094 18.5932 9.58838 18.4766H9.5874L9.59814 18.4668C9.61297 18.4514 9.62876 18.4358 9.64502 18.4219L10.6362 17.4883L11.6216 18.417ZM7.60107 15.4443C7.97738 15.4444 8.28262 15.7497 8.28271 16.126C8.28271 16.2548 8.24713 16.3758 8.18506 16.4785C8.22956 16.4694 8.27555 16.4639 8.32275 16.4639C8.69915 16.4639 9.00433 16.7691 9.00439 17.1455C9.00439 17.5219 8.69919 17.8271 8.32275 17.8271C8.05784 17.827 7.82803 17.6759 7.71533 17.4551C7.70757 17.6711 7.74944 17.8417 8.00439 18.2119H7.19775C7.45272 17.8417 7.49361 17.6711 7.48584 17.4551C7.37306 17.6759 7.14336 17.8271 6.87842 17.8271C6.50217 17.8269 6.19678 17.5218 6.19678 17.1455C6.19684 16.7693 6.50221 16.4641 6.87842 16.4639C6.9258 16.4639 6.97243 16.4693 7.01709 16.4785C6.95504 16.3758 6.91943 16.2547 6.91943 16.126C6.91952 15.7496 7.2247 15.4443 7.60107 15.4443ZM14.269 16.1738L13.271 17.4883L12.272 16.1738L13.271 14.8594L14.269 16.1738ZM19.6245 14.7881C19.9779 14.7882 20.2641 15.0743 20.2642 15.4277C20.2642 15.5952 20.2005 15.7482 20.0952 15.8623L20.0913 15.8662C20.0734 15.8853 20.0538 15.9032 20.0337 15.9199L19.0708 16.8271L18.1021 15.915C18.0862 15.9015 18.0706 15.8871 18.0562 15.8721L18.0464 15.8623V15.8613C17.9414 15.7473 17.8774 15.5949 17.8774 15.4277C17.8775 15.0744 18.1638 14.7883 18.5171 14.7881C18.7531 14.7881 18.9598 14.9154 19.0708 15.1055C19.1818 14.9153 19.3885 14.7881 19.6245 14.7881ZM16.063 11.9443C16.4391 11.9445 16.7444 12.2498 16.7446 12.626C16.7446 12.7548 16.7081 12.8758 16.646 12.9785C16.6907 12.9693 16.7373 12.9639 16.7847 12.9639C17.161 12.9639 17.4661 13.2692 17.4663 13.6455C17.4663 14.0219 17.1611 14.3271 16.7847 14.3271C16.5197 14.3271 16.29 14.176 16.1772 13.9551C16.1695 14.1711 16.2113 14.3417 16.4663 14.7119H15.6597C15.9146 14.3417 15.9555 14.1711 15.9478 13.9551C15.835 14.176 15.6054 14.3271 15.3403 14.3271C14.964 14.327 14.6587 14.0219 14.6587 13.6455C14.6589 13.2693 14.9641 12.964 15.3403 12.9639C15.3877 12.9639 15.4343 12.9693 15.479 12.9785C15.4169 12.8758 15.3813 12.7547 15.3813 12.626C15.3816 12.2497 15.6867 11.9443 16.063 11.9443ZM22.8696 12.5693C22.89 12.5863 22.9091 12.6047 22.9272 12.624L22.9321 12.6289C23.0396 12.7455 23.1048 12.9012 23.105 13.0723C23.105 13.4339 22.8123 13.7273 22.4507 13.7275C22.2766 13.7275 22.1178 13.6596 22.0005 13.5488C21.9861 13.7863 22.0161 13.9544 22.2876 14.3486H21.481C21.7524 13.9544 21.7814 13.7863 21.7671 13.5488C21.6498 13.6596 21.4919 13.7275 21.3179 13.7275C20.9561 13.7275 20.6626 13.434 20.6626 13.0723C20.6627 12.9013 20.729 12.7455 20.8364 12.6289H20.8354L20.8452 12.6191C20.8599 12.6038 20.876 12.589 20.8921 12.5752L21.8833 11.6406L22.8696 12.5693Z" fill="white"/>
</mask>
<g mask="url(#mask0_288_272)">
<rect x="0.600098" y="8.60352" width="26.3012" height="15.6532" fill="url(#paint2_linear_288_272)"/>
</g>
<path d="M29.2373 8.67188L28.2881 7.72266L24.2539 11.7578L23.0518 10.5557L27.0859 6.52051L26.1367 5.57129L30.3721 4.43652L29.2373 8.67188Z" fill="url(#paint3_linear_288_272)"/>
<g filter="url(#filter6_f_288_272)">
<ellipse cx="0.146511" cy="5.87438" rx="0.146511" ry="5.87438" transform="matrix(0.707589 -0.706624 0.707589 0.706624 18.1699 8.59473)" fill="#30E6E9" fill-opacity="0.39"/>
</g>
<g filter="url(#filter7_f_288_272)">
<ellipse cx="0.146511" cy="5.87438" rx="0.146511" ry="5.87438" transform="matrix(0.707589 -0.706624 0.707589 0.706624 17.1118 9.77148)" fill="#30E6E9" fill-opacity="0.39"/>
</g>
<g filter="url(#filter8_f_288_272)">
<ellipse cx="0.146511" cy="4.38154" rx="0.146511" ry="4.38154" transform="matrix(0.707589 -0.706624 0.707589 0.706624 17.0542 11.8223)" fill="#30E6E9" fill-opacity="0.42"/>
</g>
<g filter="url(#filter9_f_288_272)">
<ellipse cx="0.146511" cy="3.00819" rx="0.146511" ry="3.00819" transform="matrix(0.707589 -0.706624 0.707589 0.706624 16.8462 13.9707)" fill="#30E6E9" fill-opacity="0.41"/>
</g>
<g filter="url(#filter10_f_288_272)">
<ellipse cx="27.8516" cy="6.98169" rx="0.17109" ry="4.23593" transform="rotate(-45 27.8516 6.98169)" fill="#30E6E9" fill-opacity="0.5"/>
</g>
</g>
<defs>
<filter id="filter0_dd_288_272" x="23.1147" y="1.26996" width="10.4738" height="10.4191" filterUnits="userSpaceOnUse" color-interpolation-filters="sRGB">
<feFlood flood-opacity="0" result="BackgroundImageFix"/>
<feColorMatrix in="SourceAlpha" type="matrix" values="0 0 0 0 0 0 0 0 0 0 0 0 0 0 0 0 0 0 127 0" result="hardAlpha"/>
<feOffset/>
<feGaussianBlur stdDeviation="1.78836"/>
<feComposite in2="hardAlpha" operator="out"/>
<feColorMatrix type="matrix" values="0 0 0 0 0.196078 0 0 0 0 0.901961 0 0 0 0 0.905882 0 0 0 1 0"/>
<feBlend mode="normal" in2="BackgroundImageFix" result="effect1_dropShadow_288_272"/>
<feColorMatrix in="SourceAlpha" type="matrix" values="0 0 0 0 0 0 0 0 0 0 0 0 0 0 0 0 0 0 127 0" result="hardAlpha"/>
<feOffset/>
<feGaussianBlur stdDeviation="1.78836"/>
<feComposite in2="hardAlpha" operator="out"/>
<feColorMatrix type="matrix" values="0 0 0 0 0.196078 0 0 0 0 0.901961 0 0 0 0 0.905882 0 0 0 1 0"/>
<feBlend mode="normal" in2="effect1_dropShadow_288_272" result="effect2_dropShadow_288_272"/>
<feBlend mode="normal" in="SourceGraphic" in2="effect2_dropShadow_288_272" result="shape"/>
</filter>
<filter id="filter1_in_288_272" x="1.42432" y="5.33968" width="25.4766" height="22.7951" filterUnits="userSpaceOnUse" color-interpolation-filters="sRGB">
<feFlood flood-opacity="0" result="BackgroundImageFix"/>
<feBlend mode="normal" in="SourceGraphic" in2="BackgroundImageFix" result="shape"/>
<feColorMatrix in="SourceAlpha" type="matrix" values="0 0 0 0 0 0 0 0 0 0 0 0 0 0 0 0 0 0 127 0" result="hardAlpha"/>
<feOffset dy="-0.180825"/>
<feGaussianBlur stdDeviation="0.0994539"/>
<feComposite in2="hardAlpha" operator="arithmetic" k2="-1" k3="1"/>
<feColorMatrix type="matrix" values="0 0 0 0 0 0 0 0 0 0 0 0 0 0 0 0 0 0 0.46 0"/>
<feBlend mode="normal" in2="shape" result="effect1_innerShadow_288_272"/>
<feTurbulence type="fractalNoise" baseFrequency="55.301998138427734 55.301998138427734" stitchTiles="stitch" numOctaves="3" result="noise" seed="8099" />
<feColorMatrix in="noise" type="luminanceToAlpha" result="alphaNoise" />
<feComponentTransfer in="alphaNoise" result="coloredNoise1">
<feFuncA type="discrete" tableValues="1 1 1 1 1 1 1 1 1 1 1 1 1 1 1 1 1 1 1 1 1 1 1 1 1 1 1 1 1 1 1 1 1 1 1 1 1 1 1 1 1 1 1 1 1 1 1 1 1 1 1 0 0 0 0 0 0 0 0 0 0 0 0 0 0 0 0 0 0 0 0 0 0 0 0 0 0 0 0 0 0 0 0 0 0 0 0 0 0 0 0 0 0 0 0 0 0 0 0 0 "/>
</feComponentTransfer>
<feComposite operator="in" in2="effect1_innerShadow_288_272" in="coloredNoise1" result="noise1Clipped" />
<feFlood flood-color="rgba(0, 0, 0, 0.25)" result="color1Flood" />
<feComposite operator="in" in2="noise1Clipped" in="color1Flood" result="color1" />
<feMerge result="effect2_noise_288_272">
<feMergeNode in="effect1_innerShadow_288_272" />
<feMergeNode in="color1" />
</feMerge>
</filter>
<filter id="filter2_d_288_272" x="8.89103" y="11.477" width="8.75945" height="9.39275" filterUnits="userSpaceOnUse" color-interpolation-filters="sRGB">
<feFlood flood-opacity="0" result="BackgroundImageFix"/>
<feColorMatrix in="SourceAlpha" type="matrix" values="0 0 0 0 0 0 0 0 0 0 0 0 0 0 0 0 0 0 127 0" result="hardAlpha"/>
<feOffset/>
<feGaussianBlur stdDeviation="1.69072"/>
<feComposite in2="hardAlpha" operator="out"/>
<feColorMatrix type="matrix" values="0 0 0 0 0.196078 0 0 0 0 0.901961 0 0 0 0 0.905882 0 0 0 0.33 0"/>
<feBlend mode="normal" in2="BackgroundImageFix" result="effect1_dropShadow_288_272"/>
<feBlend mode="normal" in="SourceGraphic" in2="effect1_dropShadow_288_272" result="shape"/>
</filter>
<filter id="filter3_d_288_272" x="16.6013" y="7.57831" width="10.5651" height="10.8307" filterUnits="userSpaceOnUse" color-interpolation-filters="sRGB">
<feFlood flood-opacity="0" result="BackgroundImageFix"/>
<feColorMatrix in="SourceAlpha" type="matrix" values="0 0 0 0 0 0 0 0 0 0 0 0 0 0 0 0 0 0 127 0" result="hardAlpha"/>
<feOffset/>
<feGaussianBlur stdDeviation="2.03067"/>
<feComposite in2="hardAlpha" operator="out"/>
<feColorMatrix type="matrix" values="0 0 0 0 0.196078 0 0 0 0 0.901961 0 0 0 0 0.905882 0 0 0 1 0"/>
<feBlend mode="normal" in2="BackgroundImageFix" result="effect1_dropShadow_288_272"/>
<feBlend mode="normal" in="SourceGraphic" in2="effect1_dropShadow_288_272" result="shape"/>
</filter>
<filter id="filter4_d_288_272" x="14.4965" y="11.4057" width="9.15007" height="8.80291" filterUnits="userSpaceOnUse" color-interpolation-filters="sRGB">
<feFlood flood-opacity="0" result="BackgroundImageFix"/>
<feColorMatrix in="SourceAlpha" type="matrix" values="0 0 0 0 0 0 0 0 0 0 0 0 0 0 0 0 0 0 127 0" result="hardAlpha"/>
<feOffset/>
<feGaussianBlur stdDeviation="1.69072"/>
<feComposite in2="hardAlpha" operator="out"/>
<feColorMatrix type="matrix" values="0 0 0 0 0.196078 0 0 0 0 0.901961 0 0 0 0 0.905882 0 0 0 0.6 0"/>
<feBlend mode="normal" in2="BackgroundImageFix" result="effect1_dropShadow_288_272"/>
<feBlend mode="normal" in="SourceGraphic" in2="effect1_dropShadow_288_272" result="shape"/>
</filter>
<filter id="filter5_d_288_272" x="11.2773" y="8.5629" width="9.57048" height="9.52947" filterUnits="userSpaceOnUse" color-interpolation-filters="sRGB">
<feFlood flood-opacity="0" result="BackgroundImageFix"/>
<feColorMatrix in="SourceAlpha" type="matrix" values="0 0 0 0 0 0 0 0 0 0 0 0 0 0 0 0 0 0 127 0" result="hardAlpha"/>
<feOffset/>
<feGaussianBlur stdDeviation="1.69072"/>
<feComposite in2="hardAlpha" operator="out"/>
<feColorMatrix type="matrix" values="0 0 0 0 0.196078 0 0 0 0 0.901961 0 0 0 0 0.905882 0 0 0 0.6 0"/>
<feBlend mode="normal" in2="BackgroundImageFix" result="effect1_dropShadow_288_272"/>
<feBlend mode="normal" in="SourceGraphic" in2="effect1_dropShadow_288_272" result="shape"/>
</filter>
<filter id="filter6_f_288_272" x="16.8693" y="7.08703" width="11.1223" height="11.1111" filterUnits="userSpaceOnUse" color-interpolation-filters="sRGB">
<feFlood flood-opacity="0" result="BackgroundImageFix"/>
<feBlend mode="normal" in="SourceGraphic" in2="BackgroundImageFix" result="shape"/>
<feGaussianBlur stdDeviation="0.701602" result="effect1_foregroundBlur_288_272"/>
</filter>
<filter id="filter7_f_288_272" x="15.8112" y="8.26379" width="11.1223" height="11.1111" filterUnits="userSpaceOnUse" color-interpolation-filters="sRGB">
<feFlood flood-opacity="0" result="BackgroundImageFix"/>
<feBlend mode="normal" in="SourceGraphic" in2="BackgroundImageFix" result="shape"/>
<feGaussianBlur stdDeviation="0.701602" result="effect1_foregroundBlur_288_272"/>
</filter>
<filter id="filter8_f_288_272" x="15.753" y="10.3136" width="9.01051" height="9.0027" filterUnits="userSpaceOnUse" color-interpolation-filters="sRGB">
<feFlood flood-opacity="0" result="BackgroundImageFix"/>
<feBlend mode="normal" in="SourceGraphic" in2="BackgroundImageFix" result="shape"/>
<feGaussianBlur stdDeviation="0.701602" result="effect1_foregroundBlur_288_272"/>
</filter>
<filter id="filter9_f_288_272" x="15.5441" y="12.4611" width="7.06862" height="7.06324" filterUnits="userSpaceOnUse" color-interpolation-filters="sRGB">
<feFlood flood-opacity="0" result="BackgroundImageFix"/>
<feBlend mode="normal" in="SourceGraphic" in2="BackgroundImageFix" result="shape"/>
<feGaussianBlur stdDeviation="0.701602" result="effect1_foregroundBlur_288_272"/>
</filter>
<filter id="filter10_f_288_272" x="23.4508" y="2.58117" width="8.80153" height="8.80153" filterUnits="userSpaceOnUse" color-interpolation-filters="sRGB">
<feFlood flood-opacity="0" result="BackgroundImageFix"/>
<feBlend mode="normal" in="SourceGraphic" in2="BackgroundImageFix" result="shape"/>
<feGaussianBlur stdDeviation="0.701602" result="effect1_foregroundBlur_288_272"/>
</filter>
<linearGradient id="paint0_linear_288_272" x1="28.905" y1="6.29509" x2="27.284" y2="7.94322" gradientUnits="userSpaceOnUse">
<stop stop-color="#30E6E9"/>
<stop offset="1" stop-color="#30E6E9" stop-opacity="0"/>
</linearGradient>
<linearGradient id="paint1_linear_288_272" x1="25.6763" y1="8.19246" x2="6.66875" y2="27.1999" gradientUnits="userSpaceOnUse">
<stop stop-color="#6F46A2"/>
<stop offset="1" stop-color="#340565"/>
</linearGradient>
<linearGradient id="paint2_linear_288_272" x1="21.3244" y1="12.7434" x2="2.58295" y2="24.8306" gradientUnits="userSpaceOnUse">
<stop stop-color="#32E6E7"/>
<stop offset="0.336445" stop-color="#35BACD"/>
<stop offset="0.478857" stop-color="#464377"/>
<stop offset="1" stop-color="#371B65"/>
</linearGradient>
<linearGradient id="paint3_linear_288_272" x1="27.7726" y1="7.60268" x2="24.138" y2="11.2369" gradientUnits="userSpaceOnUse">
<stop stop-color="#30E6E9"/>
<stop offset="1" stop-color="#30E6E9" stop-opacity="0"/>
</linearGradient>
<clipPath id="clip0_288_272">
<rect width="32" height="32" fill="white"/>
</clipPath>
</defs>
</svg>
