<svg width="2000" height="2000" viewBox="0 0 2000 2000" fill="none" xmlns="http://www.w3.org/2000/svg">
<g clip-path="url(#clip0_289_2)">
<g filter="url(#filter0_dd_289_2)">
<path d="M1822.35 303.22L1766.32 248.107L1742.85 225.017L1686.82 169.906L1871.96 121.108L1822.35 303.22Z" fill="url(#paint0_linear_289_2)" shape-rendering="crispEdges"/>
</g>
<g filter="url(#filter1_in_289_2)">
<path d="M1698.52 948.766C1698.52 1076.84 1594.7 1180.67 1466.62 1180.67H948.2C942.86 1180.67 937.699 1182.6 933.665 1186.1L678.167 1407.71C646.83 1434.89 598.058 1412.63 598.058 1371.15V1202.85C598.058 1190.6 588.127 1180.67 575.876 1180.67H509.867C472.088 1180.67 436.42 1171.64 404.903 1155.61L619.443 941.296L791.565 1093.32L1094.02 744.564L1262.35 915.748L1698.52 454.887V948.766ZM1466.62 158.684C1520.78 158.684 1570.61 177.254 1610.08 208.374L1262.35 577.929L1094.02 406.747L791.563 755.5L619.445 603.48L277.97 950.585C277.965 949.979 277.963 949.373 277.963 948.766V390.588C277.963 262.511 381.79 158.684 509.867 158.684H1466.62Z" fill="url(#paint1_linear_289_2)"/>
</g>
<g filter="url(#filter2_d_289_2)">
<path d="M882.839 752.677L938.505 679.363L994.171 752.677L938.505 825.991L882.839 752.677Z" fill="white"/>
</g>
<g filter="url(#filter3_d_289_2)">
<path d="M1473.73 551.712C1474.87 552.668 1475.96 553.692 1476.98 554.779L1477.23 555.009L1477.21 555.025C1483.21 561.534 1486.89 570.227 1486.89 579.781C1486.89 599.953 1470.53 616.307 1450.36 616.307C1440.66 616.307 1431.83 612.52 1425.29 606.343C1424.49 619.582 1426.14 628.92 1441.28 650.9H1396.3C1411.44 628.92 1413.08 619.582 1412.28 606.343C1405.74 612.519 1396.92 616.307 1387.22 616.307C1367.04 616.307 1350.69 599.953 1350.69 579.781C1350.69 570.235 1354.35 561.547 1360.35 555.041L1360.31 555.009L1360.89 554.466C1361.71 553.606 1362.58 552.787 1363.49 552.012L1418.77 499.922L1473.73 551.712Z" fill="white"/>
</g>
<g filter="url(#filter4_d_289_2)">
<path d="M1292.82 675.409C1312.53 675.41 1328.51 691.393 1328.51 711.107C1328.51 720.445 1324.92 728.941 1319.05 735.302L1319.07 735.317L1318.83 735.543C1317.83 736.605 1316.77 737.605 1315.65 738.538L1261.94 789.154L1207.92 738.247C1207.03 737.489 1206.18 736.689 1205.37 735.849L1204.81 735.317L1204.84 735.287C1198.98 728.928 1195.4 720.436 1195.4 711.107C1195.4 691.392 1211.39 675.409 1231.1 675.409C1244.27 675.41 1255.77 682.542 1261.96 693.153C1268.14 682.541 1279.65 675.409 1292.82 675.409Z" fill="white"/>
</g>
<g filter="url(#filter5_d_289_2)">
<path d="M1094.21 516.851C1115.2 516.851 1132.21 533.866 1132.21 554.856C1132.21 562.037 1130.22 568.752 1126.76 574.48C1129.25 573.966 1131.83 573.696 1134.47 573.696C1155.46 573.696 1172.48 590.712 1172.48 611.702C1172.48 632.692 1155.46 649.707 1134.47 649.707C1119.69 649.707 1106.88 641.272 1100.6 628.953C1100.17 640.999 1102.48 650.492 1116.7 671.135H1071.72C1085.93 650.492 1088.25 640.999 1087.81 628.953C1081.53 641.271 1068.72 649.707 1053.94 649.707C1032.95 649.707 1015.94 632.692 1015.94 611.702C1015.94 590.712 1032.95 573.696 1053.94 573.696C1056.58 573.696 1059.16 573.965 1061.65 574.478C1058.19 568.75 1056.2 562.036 1056.2 554.856C1056.2 533.866 1073.22 516.851 1094.21 516.851Z" fill="white"/>
</g>
<mask id="mask0_289_2" style="mask-type:alpha" maskUnits="userSpaceOnUse" x="256" y="499" width="1231" height="646">
<path d="M353.516 1030.93C373.23 1030.93 389.211 1046.91 389.211 1066.62C389.211 1075.96 385.621 1084.46 379.752 1090.82L379.772 1090.83L379.531 1091.06C378.534 1092.12 377.472 1093.12 376.352 1094.05L322.639 1144.67L268.615 1093.76C267.729 1093.01 266.878 1092.21 266.07 1091.37L265.506 1090.83L265.544 1090.8C259.684 1084.44 256.103 1075.95 256.103 1066.62C256.103 1046.91 272.085 1030.93 291.8 1030.93C304.968 1030.93 316.47 1038.06 322.657 1048.67C328.844 1038.06 340.347 1030.93 353.516 1030.93ZM522.302 923.466L466.636 996.78L410.97 923.466L466.636 850.152L522.302 923.466ZM846.57 877.789C847.716 878.744 848.804 879.769 849.825 880.855L850.072 881.086L850.05 881.102C856.055 887.61 859.729 896.303 859.729 905.857C859.729 926.029 843.377 942.384 823.205 942.385C813.499 942.385 804.677 938.597 798.136 932.42C797.336 945.659 798.982 954.998 814.12 976.978H769.14C784.278 954.998 785.922 945.659 785.122 932.42C778.582 938.596 769.763 942.384 760.058 942.385C739.885 942.385 723.53 926.03 723.53 905.857C723.531 896.312 727.197 887.624 733.192 881.117L733.152 881.086L733.729 880.543C734.556 879.684 735.426 878.864 736.333 878.089L791.611 825.999L846.57 877.789ZM622.326 712.009C643.316 712.009 660.332 729.024 660.332 750.014C660.332 757.195 658.338 763.909 654.877 769.638C657.368 769.124 659.949 768.854 662.593 768.854C683.582 768.855 700.597 785.87 700.598 806.859C700.598 827.849 683.582 844.865 662.593 844.865C647.814 844.865 635.005 836.43 628.719 824.111C628.285 836.157 630.6 845.65 644.817 866.293H599.837C614.055 845.65 616.367 836.157 615.934 824.111C609.647 836.43 596.84 844.865 582.062 844.865C561.072 844.865 544.057 827.849 544.057 806.859C544.057 785.87 561.072 768.855 582.062 768.854C584.704 768.854 587.283 769.123 589.773 769.636C586.313 763.908 584.32 757.194 584.32 750.014C584.321 729.024 601.336 712.009 622.326 712.009ZM994.171 752.684L938.505 825.997L882.839 752.684L938.505 679.369L994.171 752.684ZM1292.82 675.411C1312.53 675.412 1328.51 691.394 1328.51 711.108C1328.51 720.446 1324.92 728.943 1319.05 735.304L1319.07 735.319L1318.83 735.544C1317.84 736.606 1316.77 737.607 1315.65 738.54L1261.94 789.155L1207.92 738.248C1207.03 737.49 1206.18 736.691 1205.37 735.851L1204.81 735.319L1204.84 735.289C1198.98 728.93 1195.4 720.438 1195.4 711.108C1195.4 691.394 1211.39 675.411 1231.1 675.411C1244.27 675.412 1255.77 682.543 1261.96 693.154C1268.15 682.543 1279.65 675.411 1292.82 675.411ZM1094.21 516.856C1115.2 516.856 1132.21 533.872 1132.21 554.862C1132.21 562.043 1130.22 568.758 1126.76 574.486C1129.25 573.973 1131.83 573.702 1134.47 573.702C1155.46 573.702 1172.48 590.718 1172.48 611.708C1172.48 632.698 1155.46 649.713 1134.47 649.713C1119.69 649.713 1106.89 641.278 1100.6 628.959C1100.17 641.005 1102.48 650.497 1116.7 671.141H1071.72C1085.94 650.497 1088.25 641.005 1087.82 628.959C1081.53 641.277 1068.72 649.713 1053.94 649.713C1032.95 649.713 1015.94 632.698 1015.94 611.708C1015.94 590.718 1032.95 573.702 1053.94 573.702C1056.59 573.702 1059.17 573.971 1061.66 574.484C1058.2 568.757 1056.2 562.042 1056.2 554.862C1056.2 533.873 1073.22 516.857 1094.21 516.856ZM1473.73 551.7C1474.87 552.655 1475.96 553.68 1476.98 554.767L1477.23 554.997L1477.21 555.013C1483.21 561.521 1486.89 570.215 1486.89 579.769C1486.89 599.94 1470.53 616.295 1450.36 616.296C1440.66 616.296 1431.84 612.508 1425.29 606.331C1424.49 619.57 1426.14 628.909 1441.28 650.889H1396.3C1411.44 628.909 1413.08 619.57 1412.28 606.331C1405.74 612.507 1396.92 616.295 1387.22 616.296C1367.04 616.296 1350.69 599.941 1350.69 579.769C1350.69 570.223 1354.35 561.535 1360.35 555.028L1360.31 554.997L1360.89 554.453C1361.72 553.594 1362.58 552.775 1363.49 552L1418.77 499.91L1473.73 551.7Z" fill="white"/>
</mask>
<g mask="url(#mask0_289_2)">
<rect x="231.984" y="330.616" width="1466.55" height="872.822" fill="url(#paint2_linear_289_2)"/>
</g>
<path d="M1828.83 334.404L1775.9 281.477L1550.92 506.459L1483.9 439.439L1708.88 214.457L1655.95 161.521L1892.11 98.2402L1828.83 334.404Z" fill="url(#paint3_linear_289_2)"/>
<g filter="url(#filter6_f_289_2)">
<ellipse cx="8.16946" cy="327.555" rx="8.16946" ry="327.555" transform="matrix(0.707589 -0.706624 0.707589 0.706624 1211.71 330.095)" fill="#30E6E9" fill-opacity="0.39"/>
</g>
<g filter="url(#filter7_f_289_2)">
<ellipse cx="8.16946" cy="327.555" rx="8.16946" ry="327.555" transform="matrix(0.707589 -0.706624 0.707589 0.706624 1152.67 395.707)" fill="#30E6E9" fill-opacity="0.39"/>
</g>
<g filter="url(#filter8_f_289_2)">
<ellipse cx="8.16946" cy="244.314" rx="8.16946" ry="244.314" transform="matrix(0.707589 -0.706624 0.707589 0.706624 1149.44 510.107)" fill="#30E6E9" fill-opacity="0.42"/>
</g>
<g filter="url(#filter9_f_289_2)">
<ellipse cx="8.16946" cy="167.736" rx="8.16946" ry="167.736" transform="matrix(0.707589 -0.706624 0.707589 0.706624 1137.88 629.878)" fill="#30E6E9" fill-opacity="0.41"/>
</g>
<g filter="url(#filter10_f_289_2)">
<ellipse cx="1751.51" cy="240.187" rx="9.53999" ry="236.195" transform="rotate(-45 1751.51 240.187)" fill="#30E6E9" fill-opacity="0.5"/>
</g>
<path d="M291.652 1677.6H198.066V1933.56H168.294V1677.6H74.7305V1647.83H291.652V1677.6Z" fill="#30E6E9"/>
<path d="M386.644 1775.47H564.704V1647.83H595.176V1933.58H564.704V1805.95H386.644V1933.58H356.172V1647.83H386.644V1775.47Z" fill="#30E6E9"/>
<path d="M876.632 1677.6H690.175V1775.47H838.796V1805.95H690.175V1903.81H876.632V1933.58H659.71V1933.58H659.703V1647.83H876.632V1677.6Z" fill="#30E6E9"/>
<rect x="1556.51" y="1647.83" width="65.3354" height="285.749" fill="#30E6E9"/>
<path d="M1751.7 1868.24H1901.77V1933.57H1751.7V1933.58H1686.36V1647.83H1751.7V1868.24Z" fill="#30E6E9"/>
<path d="M1518.23 1933.58H1452.89L1430.46 1880.59H1292.91L1270.47 1933.58H1205.14L1326.13 1647.83H1397.23L1518.23 1933.58ZM1320.57 1815.25H1402.79L1361.68 1718.17L1320.57 1815.25Z" fill="#30E6E9"/>
<path d="M1090.27 1647.85C1105.48 1648.64 1126.43 1654.59 1144.13 1669.91C1163 1686.25 1175.93 1711.34 1175.93 1745.16C1175.93 1778.9 1163.11 1804.18 1145.31 1821.2C1136.74 1829.4 1127.3 1835.42 1118.11 1839.64L1184.4 1933.58H1108.98L1048.25 1847.51H1003.1V1933.57H937.769V1647.82H946.803V1647.81H1089.43L1090.27 1647.85ZM1003.1 1782.98H1085.65C1089.35 1782.07 1095.5 1779.55 1100.71 1774.57C1105.86 1769.65 1111.4 1761.19 1111.4 1745.16C1111.4 1729.2 1105.96 1722.22 1101.9 1718.7C1096.94 1714.42 1090.79 1712.66 1087.47 1712.34H1003.1V1782.98Z" fill="#30E6E9"/>
</g>
<defs>
<filter id="filter0_dd_289_2" x="1487.39" y="-78.3295" width="584.007" height="580.987" filterUnits="userSpaceOnUse" color-interpolation-filters="sRGB">
<feFlood flood-opacity="0" result="BackgroundImageFix"/>
<feColorMatrix in="SourceAlpha" type="matrix" values="0 0 0 0 0 0 0 0 0 0 0 0 0 0 0 0 0 0 127 0" result="hardAlpha"/>
<feOffset/>
<feGaussianBlur stdDeviation="99.7189"/>
<feComposite in2="hardAlpha" operator="out"/>
<feColorMatrix type="matrix" values="0 0 0 0 0.196078 0 0 0 0 0.901961 0 0 0 0 0.905882 0 0 0 1 0"/>
<feBlend mode="normal" in2="BackgroundImageFix" result="effect1_dropShadow_289_2"/>
<feColorMatrix in="SourceAlpha" type="matrix" values="0 0 0 0 0 0 0 0 0 0 0 0 0 0 0 0 0 0 127 0" result="hardAlpha"/>
<feOffset/>
<feGaussianBlur stdDeviation="99.7189"/>
<feComposite in2="hardAlpha" operator="out"/>
<feColorMatrix type="matrix" values="0 0 0 0 0.196078 0 0 0 0 0.901961 0 0 0 0 0.905882 0 0 0 1 0"/>
<feBlend mode="normal" in2="effect1_dropShadow_289_2" result="effect2_dropShadow_289_2"/>
<feBlend mode="normal" in="SourceGraphic" in2="effect2_dropShadow_289_2" result="shape"/>
</filter>
<filter id="filter1_in_289_2" x="277.963" y="148.601" width="1420.56" height="1271.04" filterUnits="userSpaceOnUse" color-interpolation-filters="sRGB">
<feFlood flood-opacity="0" result="BackgroundImageFix"/>
<feBlend mode="normal" in="SourceGraphic" in2="BackgroundImageFix" result="shape"/>
<feColorMatrix in="SourceAlpha" type="matrix" values="0 0 0 0 0 0 0 0 0 0 0 0 0 0 0 0 0 0 127 0" result="hardAlpha"/>
<feOffset dy="-10.0828"/>
<feGaussianBlur stdDeviation="5.54554"/>
<feComposite in2="hardAlpha" operator="arithmetic" k2="-1" k3="1"/>
<feColorMatrix type="matrix" values="0 0 0 0 0 0 0 0 0 0 0 0 0 0 0 0 0 0 0.46 0"/>
<feBlend mode="normal" in2="shape" result="effect1_innerShadow_289_2"/>
<feTurbulence type="fractalNoise" baseFrequency="0.99178773164749146 0.99178773164749146" stitchTiles="stitch" numOctaves="3" result="noise" seed="8099" />
<feColorMatrix in="noise" type="luminanceToAlpha" result="alphaNoise" />
<feComponentTransfer in="alphaNoise" result="coloredNoise1">
<feFuncA type="discrete" tableValues="1 1 1 1 1 1 1 1 1 1 1 1 1 1 1 1 1 1 1 1 1 1 1 1 1 1 1 1 1 1 1 1 1 1 1 1 1 1 1 1 1 1 1 1 1 1 1 1 1 1 1 0 0 0 0 0 0 0 0 0 0 0 0 0 0 0 0 0 0 0 0 0 0 0 0 0 0 0 0 0 0 0 0 0 0 0 0 0 0 0 0 0 0 0 0 0 0 0 0 0 "/>
</feComponentTransfer>
<feComposite operator="in" in2="effect1_innerShadow_289_2" in="coloredNoise1" result="noise1Clipped" />
<feFlood flood-color="rgba(0, 0, 0, 0.25)" result="color1Flood" />
<feComposite operator="in" in2="noise1Clipped" in="color1Flood" result="color1" />
<feMerge result="effect2_noise_289_2">
<feMergeNode in="effect1_innerShadow_289_2" />
<feMergeNode in="color1" />
</feMerge>
</filter>
<filter id="filter2_d_289_2" x="694.29" y="490.815" width="488.429" height="523.725" filterUnits="userSpaceOnUse" color-interpolation-filters="sRGB">
<feFlood flood-opacity="0" result="BackgroundImageFix"/>
<feColorMatrix in="SourceAlpha" type="matrix" values="0 0 0 0 0 0 0 0 0 0 0 0 0 0 0 0 0 0 127 0" result="hardAlpha"/>
<feOffset/>
<feGaussianBlur stdDeviation="94.2742"/>
<feComposite in2="hardAlpha" operator="out"/>
<feColorMatrix type="matrix" values="0 0 0 0 0.196078 0 0 0 0 0.901961 0 0 0 0 0.905882 0 0 0 0.33 0"/>
<feBlend mode="normal" in2="BackgroundImageFix" result="effect1_dropShadow_289_2"/>
<feBlend mode="normal" in="SourceGraphic" in2="effect1_dropShadow_289_2" result="shape"/>
</filter>
<filter id="filter3_d_289_2" x="1124.23" y="273.462" width="589.118" height="603.898" filterUnits="userSpaceOnUse" color-interpolation-filters="sRGB">
<feFlood flood-opacity="0" result="BackgroundImageFix"/>
<feColorMatrix in="SourceAlpha" type="matrix" values="0 0 0 0 0 0 0 0 0 0 0 0 0 0 0 0 0 0 127 0" result="hardAlpha"/>
<feOffset/>
<feGaussianBlur stdDeviation="113.23"/>
<feComposite in2="hardAlpha" operator="out"/>
<feColorMatrix type="matrix" values="0 0 0 0 0.196078 0 0 0 0 0.901961 0 0 0 0 0.905882 0 0 0 1 0"/>
<feBlend mode="normal" in2="BackgroundImageFix" result="effect1_dropShadow_289_2"/>
<feBlend mode="normal" in="SourceGraphic" in2="effect1_dropShadow_289_2" result="shape"/>
</filter>
<filter id="filter4_d_289_2" x="1006.85" y="486.861" width="510.206" height="490.842" filterUnits="userSpaceOnUse" color-interpolation-filters="sRGB">
<feFlood flood-opacity="0" result="BackgroundImageFix"/>
<feColorMatrix in="SourceAlpha" type="matrix" values="0 0 0 0 0 0 0 0 0 0 0 0 0 0 0 0 0 0 127 0" result="hardAlpha"/>
<feOffset/>
<feGaussianBlur stdDeviation="94.2742"/>
<feComposite in2="hardAlpha" operator="out"/>
<feColorMatrix type="matrix" values="0 0 0 0 0.196078 0 0 0 0 0.901961 0 0 0 0 0.905882 0 0 0 0.6 0"/>
<feBlend mode="normal" in2="BackgroundImageFix" result="effect1_dropShadow_289_2"/>
<feBlend mode="normal" in="SourceGraphic" in2="effect1_dropShadow_289_2" result="shape"/>
</filter>
<filter id="filter5_d_289_2" x="827.388" y="328.302" width="533.638" height="531.381" filterUnits="userSpaceOnUse" color-interpolation-filters="sRGB">
<feFlood flood-opacity="0" result="BackgroundImageFix"/>
<feColorMatrix in="SourceAlpha" type="matrix" values="0 0 0 0 0 0 0 0 0 0 0 0 0 0 0 0 0 0 127 0" result="hardAlpha"/>
<feOffset/>
<feGaussianBlur stdDeviation="94.2742"/>
<feComposite in2="hardAlpha" operator="out"/>
<feColorMatrix type="matrix" values="0 0 0 0 0.196078 0 0 0 0 0.901961 0 0 0 0 0.905882 0 0 0 0.6 0"/>
<feBlend mode="normal" in2="BackgroundImageFix" result="effect1_dropShadow_289_2"/>
<feBlend mode="normal" in="SourceGraphic" in2="effect1_dropShadow_289_2" result="shape"/>
</filter>
<filter id="filter6_f_289_2" x="1139.17" y="246.006" width="620.181" height="619.548" filterUnits="userSpaceOnUse" color-interpolation-filters="sRGB">
<feFlood flood-opacity="0" result="BackgroundImageFix"/>
<feBlend mode="normal" in="SourceGraphic" in2="BackgroundImageFix" result="shape"/>
<feGaussianBlur stdDeviation="39.1213" result="effect1_foregroundBlur_289_2"/>
</filter>
<filter id="filter7_f_289_2" x="1080.14" y="311.619" width="620.181" height="619.548" filterUnits="userSpaceOnUse" color-interpolation-filters="sRGB">
<feFlood flood-opacity="0" result="BackgroundImageFix"/>
<feBlend mode="normal" in="SourceGraphic" in2="BackgroundImageFix" result="shape"/>
<feGaussianBlur stdDeviation="39.1213" result="effect1_foregroundBlur_289_2"/>
</filter>
<filter id="filter8_f_289_2" x="1076.88" y="425.994" width="502.43" height="501.958" filterUnits="userSpaceOnUse" color-interpolation-filters="sRGB">
<feFlood flood-opacity="0" result="BackgroundImageFix"/>
<feBlend mode="normal" in="SourceGraphic" in2="BackgroundImageFix" result="shape"/>
<feGaussianBlur stdDeviation="39.1213" result="effect1_foregroundBlur_289_2"/>
</filter>
<filter id="filter9_f_289_2" x="1065.27" y="545.719" width="394.148" height="393.825" filterUnits="userSpaceOnUse" color-interpolation-filters="sRGB">
<feFlood flood-opacity="0" result="BackgroundImageFix"/>
<feBlend mode="normal" in="SourceGraphic" in2="BackgroundImageFix" result="shape"/>
<feGaussianBlur stdDeviation="39.1213" result="effect1_foregroundBlur_289_2"/>
</filter>
<filter id="filter10_f_289_2" x="1506.12" y="-5.20936" width="490.793" height="490.793" filterUnits="userSpaceOnUse" color-interpolation-filters="sRGB">
<feFlood flood-opacity="0" result="BackgroundImageFix"/>
<feBlend mode="normal" in="SourceGraphic" in2="BackgroundImageFix" result="shape"/>
<feGaussianBlur stdDeviation="39.1213" result="effect1_foregroundBlur_289_2"/>
</filter>
<linearGradient id="paint0_linear_289_2" x1="1810.25" y1="201.881" x2="1719.85" y2="293.776" gradientUnits="userSpaceOnUse">
<stop stop-color="#30E6E9"/>
<stop offset="1" stop-color="#30E6E9" stop-opacity="0"/>
</linearGradient>
<linearGradient id="paint1_linear_289_2" x1="1630.24" y1="307.67" x2="570.394" y2="1367.52" gradientUnits="userSpaceOnUse">
<stop stop-color="#6F46A2"/>
<stop offset="1" stop-color="#340565"/>
</linearGradient>
<linearGradient id="paint2_linear_289_2" x1="1387.57" y1="561.458" x2="342.548" y2="1235.43" gradientUnits="userSpaceOnUse">
<stop stop-color="#32E6E7"/>
<stop offset="0.336445" stop-color="#35BACD"/>
<stop offset="0.478857" stop-color="#464377"/>
<stop offset="1" stop-color="#371B65"/>
</linearGradient>
<linearGradient id="paint3_linear_289_2" x1="1747.15" y1="274.778" x2="1544.49" y2="477.433" gradientUnits="userSpaceOnUse">
<stop stop-color="#30E6E9"/>
<stop offset="1" stop-color="#30E6E9" stop-opacity="0"/>
</linearGradient>
<clipPath id="clip0_289_2">
<rect width="2000" height="2000" fill="white"/>
</clipPath>
</defs>
</svg>
