<svg xmlns="http://www.w3.org/2000/svg" viewBox="0 0 64 64" role="img" aria-labelledby="title">
  <title>United States flag</title>
  <rect width="64" height="64" rx="32" fill="#fff"/>
  <clipPath id="us-circle">
    <rect width="64" height="64" rx="32"/>
  </clipPath>
  <g clip-path="url(#us-circle)">
    <rect width="64" height="64" fill="#b22234"/>
    <g fill="#fff">
      <rect y="5" width="64" height="5"/>
      <rect y="15" width="64" height="5"/>
      <rect y="25" width="64" height="5"/>
      <rect y="35" width="64" height="5"/>
      <rect y="45" width="64" height="5"/>
      <rect y="55" width="64" height="5"/>
    </g>
    <rect width="30" height="30" fill="#3c3b6e"/>
    <g fill="#fff">
      <circle cx="6" cy="6" r="1.5"/>
      <circle cx="14" cy="6" r="1.5"/>
      <circle cx="22" cy="6" r="1.5"/>
      <circle cx="10" cy="12" r="1.5"/>
      <circle cx="18" cy="12" r="1.5"/>
      <circle cx="26" cy="12" r="1.5"/>
      <circle cx="6" cy="18" r="1.5"/>
      <circle cx="14" cy="18" r="1.5"/>
      <circle cx="22" cy="18" r="1.5"/>
      <circle cx="10" cy="24" r="1.5"/>
      <circle cx="18" cy="24" r="1.5"/>
      <circle cx="26" cy="24" r="1.5"/>
    </g>
  </g>
</svg>